<svg xmlns="http://www.w3.org/2000/svg" viewBox="0 0 1756 1553"><defs><style>.cls-1{stroke:#000;}.cls-2{fill:none;}</style></defs><title>Element 3</title><g id="Ebene_2" data-name="Ebene 2"><g id="Ebene_1-2" data-name="Ebene 1"><path class="cls-1" d="M635,.5h469c.75,1.67,1.52,3.33,2.22,5q68.22,162.65,136.43,325.31,130.75,311.75,261.5,623.48Q1629.58,1253.4,1755,1552.5H1286c-.64-1.36-1.31-2.69-1.91-4.07q-103.39-239.9-206.78-479.8Q978.37,839,879.44,609.43c-3.14-7.29-6.34-14.56-9.84-22.58-94.77,223-189.2,445.17-284,668.23H593q143,0,286-.14c5.6,0,8.36,1.49,10.7,6.77q62.16,140.65,124.73,281.12c1.39,3.14,2.41,6.44,3.6,9.67H1q2.36-5.77,4.72-11.54Q116,1271,226.32,1001,306,805.84,385.82,610.7,478.1,384.83,570.36,159,602.71,79.75,635,.5Z"/><path class="cls-2" d="M1755,1552.5q-125.43-299.1-250.85-598.19-130.74-311.74-261.5-623.48Q1174.43,168.17,1106.22,5.52c-.7-1.69-1.47-3.35-2.22-5h652V13.35q0,767.33,0,1534.65A21.92,21.92,0,0,1,1755,1552.5Z"/><path class="cls-2" d="M635,.5Q602.69,79.73,570.36,159,478.1,384.83,385.82,610.7,306.08,805.85,226.32,1001,116,1271,5.73,1541,3.38,1546.74,1,1552.5c-.33-.17-.94-.32-1-.5-.08-1.33,0-2.67,0-4V.5Z"/><path class="cls-2" d="M1018,1552.5c-1.19-3.23-2.21-6.53-3.6-9.67Q952,1402.28,889.67,1261.71c-2.34-5.28-5.1-6.78-10.7-6.77q-143,.29-286,.14h-7.37C680.4,1032,774.83,809.85,869.6,586.85c3.5,8,6.7,15.29,9.84,22.58q98.94,229.59,197.87,459.2,103.38,239.91,206.78,479.8c.6,1.38,1.27,2.71,1.91,4.07Z"/></g></g></svg>