<?xml version="1.0" encoding="utf-8"?>
<!-- Generator: Adobe Illustrator 26.2.1, SVG Export Plug-In . SVG Version: 6.00 Build 0)  -->
<svg version="1.1" id="Layer_1" xmlns="http://www.w3.org/2000/svg" xmlns:xlink="http://www.w3.org/1999/xlink" x="0px" y="0px"
	 viewBox="0 0 380 236" style="enable-background:new 0 0 380 236;" xml:space="preserve">
<g>
	<path d="M291.11,154.18c0-15.32,0-29.08,0-42.65c-17.24,2.37-34.03,4.67-51.43,7.06c-0.08,1.6-0.27,3.52-0.27,5.45
		c-0.02,22.67-0.08,45.34,0.06,68.01c0.02,3.36-0.93,5.52-3.73,7.45c-14.27,9.82-28.42,19.81-42.63,29.72
		c-1.04,0.72-2.21,1.25-3.81,2.14c0-69.15,0-137.72,0-206.6c16.41-0.89,32.92-1.79,49.97-2.72c0,16.87,0,33.62,0,51.29
		c8.8-0.93,17.01-1.62,25.17-2.7c7.26-0.96,14.43-2.66,21.7-3.42c4.45-0.47,5.25-2.4,5.19-6.43c-0.23-15.17-0.01-30.34-0.16-45.5
		c-0.03-2.96,1.05-4.03,3.69-5.35c9.47-4.75,16.84-2.71,25.06,3.87c15.07,12.06,31.19,22.8,46.87,34.1c1.73,1.25,3.44,2.51,5.34,3.9
		C350.89,90.15,324.27,123.74,291.11,154.18z"/>
	<path d="M7.61,51.69c2.21-1.61,4.32-3.17,6.45-4.71c17.98-12.95,35.92-25.95,54-38.76c1.6-1.13,4.38-1.9,6.12-1.33
		c27.53,9.03,55.77,14.24,84.64,16.25c1.3,0.09,2.58,0.39,3.95,0.61c0,12.02,0,23.77,0,35.85c-21.91-1.57-43.32-4.28-64.41-9.26
		c-11.23-2.65-13.08-1.94-20.52,8.52c27.73,8.69,56.16,12.49,85,14.84c0,14.87,0,29.33,0,45.05c-16.49-1.93-32.73-3.84-50.35-5.91
		c13.5,10.9,25.53,21.78,38.77,30.92c9.24,6.38,12.88,13.37,12.05,24.57c-1.06,14.4-0.26,28.95-0.26,44.63
		C99.86,169.47,44.39,119.96,7.61,51.69z"/>
</g>
</svg>
