<svg xmlns="http://www.w3.org/2000/svg" viewBox="0 0 213.5 213.49"><defs><style>.cls-1{fill:none;}</style></defs><title>Element 4</title><g id="Ebene_2" data-name="Ebene 2"><g id="Ebene_1-2" data-name="Ebene 1"><path d="M0,106.77Q0,65.54,0,24.31C0,8.51,8.59,0,24.51,0H188.94c16.14,0,24.55,8.48,24.55,24.75q0,82,0,163.93c0,16.48-8.39,24.8-25,24.8H25.06c-16.82,0-25-8.31-25-25.25Q0,147.5,0,106.77Zm180.12,11.67A80.11,80.11,0,0,0,176,95c-3.32-9.19-11.19-14.9-21.23-15.75-11.93-1-23.16,1-32.22,12V79.21H90.11v91.44h32.64v-5.34c0-14.66-.1-29.33.09-44a28.84,28.84,0,0,1,1.81-9.69,12.4,12.4,0,0,1,12.19-7.92c5.53.46,8.73,4,10.15,9A38.65,38.65,0,0,1,148.32,123c.14,14,.05,28,.07,42,0,1.77.15,3.54.24,5.5H180M32.44,79.1v91.38H64.67V79.1ZM65.07,53.2c-.11-9-6.69-14.76-16.62-14.6S31.89,44.92,32,53.64,39,68.4,48.28,68.35C58.43,68.3,65.19,62.2,65.07,53.2Z"/><path class="cls-1" d="M180,170.52H148.63c-.09-2-.24-3.73-.24-5.5,0-14,.07-28-.07-42A38.65,38.65,0,0,0,147,112.68c-1.42-4.94-4.62-8.52-10.15-9a12.4,12.4,0,0,0-12.19,7.92,28.84,28.84,0,0,0-1.81,9.69c-.19,14.67-.09,29.34-.09,44v5.34H90.11V79.21h32.41V91.26c9.06-11.06,20.29-13,32.22-12,10,.85,17.91,6.56,21.23,15.75a80.11,80.11,0,0,1,4.15,23.44"/><path class="cls-1" d="M32.44,79.1H64.67v91.38H32.44Z"/><path class="cls-1" d="M65.07,53.2c.12,9-6.64,15.1-16.79,15.15C39,68.4,32.19,62.25,32,53.64s6.58-14.88,16.41-15S65,44.22,65.07,53.2Z"/></g></g></svg>