<svg xmlns="http://www.w3.org/2000/svg" viewBox="0 0 89.8 99.81"><defs><style>.cls-1{fill:#b41c1c;}.cls-2{fill:#870b0c;}.cls-3{fill:#c05656;}.cls-4{fill:#8c0a0a;}.cls-5{fill:#860f0f;}.cls-6{fill:#921b1b;}.cls-7{fill:#d26a6a;}.cls-8{fill:#d16969;}.cls-9{fill:#b33b3b;}.cls-10{fill:#d07171;}.cls-11{fill:#d20202;}.cls-12{fill:#a60f0f;}.cls-13{fill:#ce2424;}.cls-14{fill:#a50101;}.cls-15{fill:#b51919;}.cls-16{fill:#de3a3a;}.cls-17{fill:#c84e4e;}.cls-18{fill:#950101;}.cls-19{fill:#820909;}.cls-20{fill:#cf1919;}.cls-21{fill:#c61c1c;}.cls-22{fill:#d70606;}.cls-23{fill:#db0808;}.cls-24{fill:#d40505;}.cls-25{fill:#b81313;}.cls-26{fill:#ea1515;}.cls-27{fill:#e00e0e;}.cls-28{fill:#c50303;}.cls-29{fill:#b80202;}.cls-30{fill:#c81212;}.cls-31{fill:#f52929;}.cls-32{fill:#e82525;}.cls-33{fill:#e51111;}.cls-34{fill:#f12424;}.cls-35{fill:#ee1919;}.cls-36{fill:#ce0202;}.cls-37{fill:#d70808;}.cls-38{fill:#dd1010;}.cls-39{fill:#d60f0f;}.cls-40{fill:#e51010;}.cls-41{fill:#de1b1b;}.cls-42{fill:#fefdfd;}.cls-43{fill:#ea0404;}.cls-44{fill:#f21d1d;}.cls-45{fill:#f50404;}.cls-46{fill:#d30404;}.cls-47{fill:#ce0909;}.cls-48{fill:#e10d0d;}.cls-49{fill:#f82222;}.cls-50{fill:#f31f1f;}.cls-51{fill:#ee1a1a;}.cls-52{fill:#ed1616;}.cls-53{fill:#fd0a0a;}.cls-54{fill:#f11e1e;}.cls-55{fill:#f52121;}.cls-56{fill:#dc0909;}.cls-57{fill:#d80606;}.cls-58{fill:#ed1717;}.cls-59{fill:#f80b0b;}.cls-60{fill:#e20000;}.cls-61{fill:#f00303;}.cls-62{fill:#f31c1c;}.cls-63{fill:#fa2626;}.cls-64{fill:#f90a0a;}.cls-65{fill:#fc2828;}.cls-66{fill:#f71010;}.cls-67{fill:#f72121;}.cls-68{fill:#fcfbfb;}.cls-69{fill:#f90c0c;}.cls-70{fill:#fc1c1c;}.cls-71{fill:#fc2727;}.cls-72{fill:#f62020;}.cls-73{fill:#f42c2c;}.cls-74{fill:#fb0d0d;}</style></defs><title>Element 1</title><g id="Ebene_2" data-name="Ebene 2"><g id="Ebene_1-2" data-name="Ebene 1"><path class="cls-1" d="M89.63,5.88l-.72,2.84c0,.33,0,.65,0,1,0,23.64,0,47.27-.09,70.91,0,2.06,1.39,5.42-2.91,5.38-1.83-1.87-1.45-4.29-1.58-6.58-.5-8.8.58-17.55,1-26.32.58-12-1.27-23.84-1-35.79a29.14,29.14,0,0,1,.46-6.92c1.07-1.44,0-3.34,1-4.81A3,3,0,0,1,89.63,5.88Z"/><path class="cls-2" d="M35.94,96.82c-10.81,3.32-21.62,4.69-32.35-.19C2,95.9-.63,95.67.14,92.7c2-3,3.57.24,5.35.44a27.38,27.38,0,0,0,9.09,2.76c2.73.84,5.46,2,8.17-.07a6.39,6.39,0,0,1,2-1,29.45,29.45,0,0,1,6.5-.4C33,94.73,35.52,93.78,35.94,96.82Z"/><path class="cls-3" d="M89.63,5.88,85.85,6C81.42,7.2,77.35,4.58,73,4.79,69,3.37,65.24,5,61.44,5.91c-3.2.73-6.28,2-9.6,2.18-1.65-.15-3.49.08-4.17-2,1.44-1.64,3.43-1.71,5.39-1.86C60.66,2.75,67.92-1,76,.73,81,1.3,86.07,1.58,89.63,5.88Z"/><path class="cls-4" d="M4.9,93.74c-1.76.44-2.78-2.5-4.76-1L.08,11.82C1.7,9.57,2.19,11,2.63,12.6a5.8,5.8,0,0,1-.19,1.76c-.15,24.51-.32,49,.1,73.51C3,90,5.55,91.2,4.9,93.74Z"/><path class="cls-5" d="M89.64,92.67c.33,2-.6,1.88-1.93,1.17-7.11-3.84-14.81-4.37-22.66-4a1.41,1.41,0,0,1-1.54.07c-1.24-.65-2.77-1.2-1-2.9,8.75-3.12,17.31-1.45,25.83,1C90.08,89.22,88.83,91.23,89.64,92.67Z"/><path class="cls-1" d="M89.64,92.67c-1.22-1.12-.64-2.61-.84-3.94-1.56-2.35-.36-4.88-.37-7.29-.12-22.3-.08-44.6-.06-66.9,0-1.82-.29-3.66.31-5.45l.23-.37c1,.42.89,1.29.88,2.1Z"/><path class="cls-6" d="M63.69,89.49l1.36.34-29.11,7C34.56,95,32.58,96,30.87,95.71a1.37,1.37,0,0,1,.49-1.44c9-2.22,17.69-5.93,27.12-6.46C60.27,88.21,61.86,89.22,63.69,89.49Z"/><path class="cls-7" d="M4.9,9.87C8,9,10.74,10.71,13.69,11c7.59.73,14.81-1.43,22.19-2.29a1.66,1.66,0,0,1,.42,1.53c-.91,1.92-2.78,2.32-4.55,2.65-8.6,1.59-17.17,2.22-25.58-1.08C5.41,11.38,4.74,10.9,4.9,9.87Z"/><path class="cls-8" d="M76,.73c-8.12-1-15.3,3.4-23.14,4.06a.72.72,0,0,1-.1-1.26C60.36,1.38,67.9-1.32,76,.73Z"/><path class="cls-9" d="M4.9,9.87l1,1c2.13,1.8,6,.43,7.18,4a3.11,3.11,0,0,1-1.92,1,6.91,6.91,0,0,1-2.86-.22,23.89,23.89,0,0,1-5.44-2.84l-1-1c-.63-1.21-1.23-.13-1.84,0V7.36C2.48,6.78,3.33,9,4.9,9.87Z"/><path class="cls-8" d="M35.89,9.81V8.7c.84-.53,1.61-1.23,2.73-1a5.73,5.73,0,0,1,4.27,0C41.52,11.54,38.93,11.39,35.89,9.81Z"/><path class="cls-10" d="M42.94,7.86,38.61,7.7a17.78,17.78,0,0,1,7.07-2.14l.45.61C45.69,7.92,44.85,8.89,42.94,7.86Z"/><path class="cls-10" d="M52.76,3.53c0,.42.07.84.11,1.26l-5,1.12A1.42,1.42,0,0,1,46,6l-.35-.45A18.67,18.67,0,0,1,52.76,3.53Z"/><path class="cls-11" d="M85.86,8.81c1,25.65.88,51.3,0,77-.42,2.7-2.28,1.76-3.71,1.33a39.28,39.28,0,0,0-9.62-1.44,2.4,2.4,0,0,1-1.91-1.26,2.25,2.25,0,0,1,.89-2,9.27,9.27,0,0,1,1.9-1c3.7-3.88.7-7.91.26-11.89,0-11.28,0-22.57-.19-33.83-.14-7.4,1.36-14.82-.52-22.25-1.17-4.65.75-6.36,6.39-6.92C81.79,6.53,84.1,6.93,85.86,8.81Z"/><path class="cls-12" d="M71.84,84.78c3.46-.3,6.7.85,10,1.51,1.46.29,2.83.85,4-.53,3-.68,1.91-3.13,1.92-4.88.07-22.2,0-44.41.08-66.61,0-1.73-.75-3.66.8-5.18l.12,79.64c-4.12.75-7.72-1.54-11.64-2-5.15-.55-10.19.68-15.28,1a.78.78,0,0,1-1.21-.41,2.16,2.16,0,0,1,1.5-1.58A23,23,0,0,1,71.84,84.78Z"/><path class="cls-13" d="M85.86,8.81l-6-1c-2.6-1.32-5.12,0-7.67.29A11.13,11.13,0,0,1,69,7.76a3.22,3.22,0,0,1-2.26-2.12c1.29-3.06,4-1.48,6.1-1.84,4.52-.42,8.78.81,13,2.15C85.57,6.9,87,7.85,85.86,8.81Z"/><path class="cls-14" d="M1.92,11.8l1,0a10,10,0,0,1,1.18,2.6c.47,20,.07,39.9.22,59.85,0,4.49-.22,9,.2,13.45,1.74,4.48,5.68,5.2,9.76,5.67,2.85.18,5.6.94,8.41,1.4a2.72,2.72,0,0,1,1.23,1l-1,.95a12.73,12.73,0,0,1-8,0c-3.65.07-7.12-.48-10-3l-3-4c-.71-1-.47-2.25-.47-3.39q0-35.07,0-70.14c0-1.14-.23-2.33.46-3.39Z"/><path class="cls-4" d="M14.9,96.74h8C20.23,99.29,17.57,98.38,14.9,96.74Z"/><path class="cls-15" d="M23.93,95.79l-1-.08c1.79-3.67,4.7-2.13,7.39-1.58l.63.62c0,.32,0,.64,0,1Z"/><path class="cls-16" d="M72.83,3.8c-1.67,1.58-4.35.19-5.94,2l-.56.6c-13.2,4-26.29,8.41-40,10.45-3.75.51-7.53.24-11.29.29-1.64-.35-3.84.3-4.14-2.37l2,0c3.51-2.07,7.45-.82,11.16-1.27A87,87,0,0,0,39.57,10.2C43.64,9,47.64,7.49,51.86,6.82,57,5.61,62.09,4.36,67.22,3.21,69.12,2.78,71.11,2.14,72.83,3.8Z"/><path class="cls-17" d="M51.86,6.82c-12.49,5-25.35,8.26-38.93,7.94-1.77-2.32-5.25-1.58-7-3.91a53.72,53.72,0,0,0,24.51,1c1.94-.41,3.9-.63,5.47-2a10.94,10.94,0,0,0,7-1.95C44.38,7.92,45.24,7,46,6l1.88-.09C49,7.24,50.51,6.65,51.86,6.82Z"/><path class="cls-18" d="M1.9,12.82q0,38.46,0,76.92C.52,88.6.93,87,.93,85.58Q.9,51.28.93,17C.94,15.55.5,14,1.9,12.82Z"/><path class="cls-19" d="M60.89,87.77c.33,0,.66,0,1,0l1.83,1.7c-1.67.09-3.43.84-4.83-.75A2,2,0,0,1,60.89,87.77Z"/><path class="cls-15" d="M60.89,87.77a2.18,2.18,0,0,1-2,1c-7.66.51-14.66,3.79-22.1,5.26a29.12,29.12,0,0,1-5.86.75l0,0c.34-2.75,2.86-2.29,4.52-2.88,2-.71,4.14-1.11,6.12-2,5.34-2.27,11.07-3.21,16.63-4.76a6.37,6.37,0,0,1,1.5-.26,3.63,3.63,0,0,1,2.17.58.93.93,0,0,1,0,1.34Z"/><path class="cls-20" d="M10.9,14.79c1,1.46,2.64.86,4,1,.49,1.27,3.62-.78,2.75,2.19-1.31,1.05-2.8.95-4.31.67a30.27,30.27,0,0,0-4.21-.88,15.74,15.74,0,0,1-3.42-1.12,3,3,0,0,1-1.08-1,1.43,1.43,0,0,1,.47-1.29,3.25,3.25,0,0,1,2.8.34Z"/><path class="cls-21" d="M7.92,14.77l-3,0a.81.81,0,0,1-1,.37c-.48-.35-.65-.95-1-1.39,0-.64,0-1.28,0-1.92C4.62,12.78,6.6,13.22,7.92,14.77Z"/><path class="cls-22" d="M71.85,6.81c2.66.4,5.55-1,8,1C73.63,8,72.8,9,74.79,14.84c1,2.94.42,5.7.3,8.65-.43,10-.12,20-.13,30.07,0,5.73-.07,11.46-.1,17.19a17.76,17.76,0,0,1-1,12h-2A72.46,72.46,0,0,1,72,65.39c.26-2.46,1.68-5.24-1.16-7.26-2.33-1-2.77-2.23-.61-3.9a13,13,0,0,1,1.19-.87A30.15,30.15,0,0,0,71.51,36c-.89-.81-2.11-1.19-2.86-2.18a3.51,3.51,0,0,1,.55-2.21c.72-6.07,0-12.16.27-18.23C69.57,10.91,69.17,8.29,71.85,6.81Z"/><path class="cls-23" d="M70.85,56.77c1.65,0,3.22.28,3,2.36-1,7.84-.2,15.83-1.94,23.61l-1,1c-1.48,2-3.26,1.92-5.2.77,3.39-5,3.79-10.75,3.83-16.62C69.51,64.18,68.4,60.23,70.85,56.77Z"/><path class="cls-24" d="M73.85,82.74q.51-6,1-12C76.23,74.89,78.53,79.11,73.85,82.74Z"/><path class="cls-25" d="M65.87,84.72a8.12,8.12,0,0,0,5-1l1,1c-3.17,1.44-6.6,1.57-10,2,0-.32,0-.65,0-1A3.2,3.2,0,0,1,65.87,84.72Z"/><path class="cls-26" d="M66.89,5.82l2,1c.51,1.13-.13,2-.66,2.86-1.32,6,.35,11.93.57,17.88.08,2.16.34,4.24-.65,6.24a2.73,2.73,0,0,1-2.23.8,3.47,3.47,0,0,1-1.55-.6,4.76,4.76,0,0,1-1.7-4c.45-7.25-.19-14.52.18-21.77.84-1.66,2.7-1.57,4-2.37Z"/><path class="cls-27" d="M67.86,8.8c.33-.67.67-1.33,1-2h3c-2.17,7.74-.49,15.64-.91,23.45-.06,1.06.87,2.34-1.08,2.52a40.39,40.39,0,0,1-2.27-15C67.71,14.83,65.37,11.69,67.86,8.8Z"/><path class="cls-28" d="M3.93,14.76l1,0v1c1.83,2.12,1.36,4.71,1.37,7.16.1,21.46-.11,42.92.13,64.37A4.51,4.51,0,0,0,9.1,90.51a37.28,37.28,0,0,0,3.67,1.59,3.42,3.42,0,0,1,1.42,1.4,1.14,1.14,0,0,1-.28,1.21c-3.86-.6-7.74-1.15-10-5-.71-1-.47-2.25-.47-3.39q0-34.11,0-68.21C3.44,17,3.18,15.8,3.93,14.76Z"/><path class="cls-29" d="M3.93,14.76q0,37.49,0,75c-1.53-1.31-1-3.08-1-4.68q0-35.64,0-71.29Z"/><path class="cls-30" d="M13.91,94.71v-1c1-1.19,2.45-1.24,3.86-1.33,2.66-.21,5.37.33,8-.53,3.87-.6,7.84-.49,11.59-1.88a7.59,7.59,0,0,1,1.58-.29,3.44,3.44,0,0,1,2.93,1c-3.19,2.63-7.66,1.7-11,4-2.65.45-5.53-.95-8,1Z"/><path class="cls-31" d="M66.85,5.84l-3,2c-2.18.88-3.19,3.19-5.2,4.28-7.66-.3-14.34,3.34-21.44,5.3-2.62.67-5.17-.2-7.75-.39A3.7,3.7,0,0,1,26.9,15.8C40.47,13.48,53.23,7.94,66.85,5.84Z"/><path class="cls-32" d="M26.9,15.8h3a1.57,1.57,0,0,1,.38,1.33c-2.06,2.38-4.93,1.56-7.51,1.89a9,9,0,0,1-4.37-.7l-.52-.54-3-2Z"/><path class="cls-33" d="M65.87,84.72l-4,1.06-2,0c-.35-.83.15-1.31.72-1.76a20.11,20.11,0,0,0,2.3-1.6c2.4-2.27,2.27-5.38,2.54-8.26A53.82,53.82,0,0,0,65,57.94c-.66-1-2.13-1.35-2.39-2.74a1.79,1.79,0,0,1,1-1.21c2.52-.68,5-1.13,7.3.71.69.7-3.37,1.36,0,2.07-.41,7.06.56,14.13-.7,21.23A10,10,0,0,1,65.87,84.72Z"/><path class="cls-34" d="M60.87,84.72c-.33.34-.66.67-1,1l-1,0c-6.75,1.27-13.28,3.39-20,5l-1,0a3.3,3.3,0,0,1-3,.24,2.5,2.5,0,0,1-.46-2.87c1.34-1.38,3.24-1,4.85-1.6,6.55-1,12.87-3.1,19.36-4.42C60.06,82.38,61.19,82.93,60.87,84.72Z"/><path class="cls-35" d="M38.91,90.73c6.43-2.53,13-4.58,20-5-5.43,2.47-11.43,3-17,5Z"/><path class="cls-36" d="M5.91,89.74c-1.63-1.48-1-3.43-1-5.17q-.06-34.41,0-68.8l1,0a6.42,6.42,0,0,1,1,1.69c.84,5.44.35,10.92.37,16.38q.12,24.63,0,49.25C7.29,85.4,7.79,87.84,5.91,89.74Z"/><path class="cls-37" d="M5.91,16.8v-1l3,1c1.24,1.16,3.14.84,4.39,2a3.93,3.93,0,0,1,.57,1.39C13,25.58,13.21,31.27,9.73,36c-3.52-1.82-1.45-5.49-2.66-8.07C6.36,24.24,7.92,20.34,5.91,16.8Z"/><path class="cls-38" d="M12.9,17.79h5c.48.45,1.28.63,1.23,1.52-1,1.68-2.44.93-3.78.76A4.48,4.48,0,0,1,12.9,18.8h0a.6.6,0,0,1-.25-.67C12.73,17.9,12.82,17.79,12.9,17.79Z"/><path class="cls-39" d="M12.9,17.79v1c-1.71.1-3.23-.18-4-2C10.29,16.93,11.85,16.34,12.9,17.79Z"/><path class="cls-40" d="M67.86,8.8q1,12,2,24l-1,1a.78.78,0,0,1-1,0c-.64-6.71-.63-13.47-1.79-20.15C65.77,11.9,64.8,9.48,67.86,8.8Z"/><path class="cls-41" d="M71.8,34.67c.45.19,1.24.29,1.3.56,1.44,6.24,1,12.53.23,18.81,0,.26-1.1.41-1.68.61a3.74,3.74,0,0,1-.27-1.51c-.09-5.54,1-11.12-.67-16.6A2.46,2.46,0,0,1,70.54,35,.81.81,0,0,1,71.8,34.67Z"/><path class="cls-42" d="M72,53.91c-.1.26-2.83.75-2.55.75-.95,0,.81-.95.81-.95l-.61.6c-2.67-.9-4.08.82-6.73.58-.61-1.14,0-1.82.88-2.43A24.54,24.54,0,0,1,71,53,2.28,2.28,0,0,1,72,53.91Z"/><path class="cls-43" d="M71.8,34.67c-.32,0-.64.07-1,.08a3.78,3.78,0,0,1-4.69.5,1,1,0,0,1-.29-1.46l2,0h1C69.92,33.83,71.06,33.58,71.8,34.67Z"/><path class="cls-44" d="M58.87,11.8c.41-2.9,2.18-4.1,5-4,1.36,8.61-1.16,17.37,1,26-1.32,1.54-2.74,2.37-4.55.69C59.48,26.93,58,19.44,58.87,11.8Z"/><path class="cls-45" d="M60.86,34.76l4-1,1,0c0,.32,0,.64,0,1a2.38,2.38,0,0,1-1.08,1.67,7.51,7.51,0,0,1-2.58,1.11,2.67,2.67,0,0,1-2.65-.87C59.37,35.6,59.25,34.58,60.86,34.76Z"/><path class="cls-46" d="M5.91,16.8c3.88,3.08,1.19,7.35,2,11,.59,8.87.44,17.76.49,26.65,0,8.59-.46,17.2.93,25.74C8.82,84,10.83,88,8.91,91.73l-3-2Z"/><path class="cls-37" d="M8.91,91.73a38.68,38.68,0,0,1-1-11c1-1.66.49-3.42.3-5.15-.14-1.37-.18-2.6,1.48-3,2.45,1.78,2.24,4.61,2.77,7.13.91,4.33,2,8.61,2.67,13a1.54,1.54,0,0,1-2.23.07A6.67,6.67,0,0,1,8.91,91.73Z"/><path class="cls-47" d="M12.9,92.74h2a2.24,2.24,0,0,1,2.84-.35.92.92,0,0,1,.17,1.34h-4Z"/><path class="cls-48" d="M17.91,93.72c0-.33,0-.66,0-1-5.27-2.87-5-8.52-5.61-13.08-2.37-18.23-2.63-36.54.65-54.76.42-2.3,1.06-4.51,3-6.1,1,.27,2,1.59,3,0,3.46.15,2.77,2.68,2.45,4.65-.81,4.91-1,9.87-1.67,14.78-.29,2.1-.42,4,2.23,4.71a3.13,3.13,0,0,1,1.26.82,2,2,0,0,1-.25,2.14c-1.68,1.7-4.38.49-6.07,2.15-1.18,5.07-.57,10.18-.35,15.27A6.36,6.36,0,0,0,17.7,65a5.89,5.89,0,0,1,1.75,2.27c.95,6.39,1,12.89,2.39,19.25.52,2.44,1.4,4.37,3.61,5.59l.44.6C23.43,94.71,20.56,93.3,17.91,93.72Z"/><path class="cls-35" d="M34.88,90.73l3,0c-3.72,2.31-7.89,2-12,2v0c-.7-8.69-2.34-17.3-2.18-26.06a2.58,2.58,0,0,1,3-.29c1.89,3.12,1.21,6.79,2.15,10.13.49,1.74.43,3.64,1.63,5.16C31.4,85,30.91,88.92,34.88,90.73Z"/><path class="cls-49" d="M60.86,34.76a2.07,2.07,0,0,0-1,2,3.68,3.68,0,0,1-2.7,1.86,2.87,2.87,0,0,1-3-1.26c-1.27-5.68-.67-11.41-.42-17.12.1-1.55,2.33-2.91.77-4.53-1.31-1.36-3.13-.7-4.72-.19C46.24,16.63,42,16.85,41,21.66a3.3,3.3,0,0,1-2.81,1.16c-4-1.9-4.11-2.59-1.32-6C43,13.26,50,12.41,56.62,10.23c.52-.17,1.49,1,2.25,1.57A84.39,84.39,0,0,1,60.86,34.76Z"/><path class="cls-50" d="M36.89,16.79c-.91,2.3-2.54,4.89,2,5,.69.55,1.52,1,1.25,2.13a5.46,5.46,0,0,1-3.67,2.5,5.37,5.37,0,0,1-1.2.06,1.58,1.58,0,0,0-2,1.53c-.17,2.93,0,5.85-.11,8.77-.08,1.94-.1,3.94-2.07,5.14-1.7.22-2-1-1.84-2.16.8-5.23-.61-10.42-.18-15.63a47.36,47.36,0,0,0,.79-7.33c0-.33,0-.66,0-1Z"/><path class="cls-26" d="M21.9,43.76C17,45.76,17.81,42,18,39.62c.52-5.75,1.26-11.49,2.23-17.17.3-1.75.35-2.88-1.35-3.65l-1-1h5c3.09.65,6.51,1.05,4.2,5.69-2.5,4.8-1.76,10.2-2.78,15.28C23.94,40.68,24,42.74,21.9,43.76Z"/><path class="cls-51" d="M25.89,22.79c3.29-4.23-1.93-3.36-3-5,2.38,0,4.78.11,7-1a5.79,5.79,0,0,1,0,7,13.43,13.43,0,0,0-1.08,4.77c-.08,1.27-.27,2.82-2.32,2.14C24.09,28.23,25.5,25.47,25.89,22.79Z"/><path class="cls-42" d="M35.91,25.9c1-1.37,2.6-1.59,4-2.26a6.75,6.75,0,0,1,4.28-2.09c.81-.1,1.64-.07,2.45-.19,7.25-1.06,7.25-1.07,7.26,6.54,0,2.46,0,4.92,0,7.38,0,3,1.48,3.67,4.07,2.53l1.93-1.1,3,.11.59.64c1.3,5.07.77,10.2.39,15.32l-1,2.11a5.56,5.56,0,0,0-.37.73c-1.57,2-4.14,1.11-6,2.13a4.4,4.4,0,0,0-1.82,1c-1,3.42-.31,6.92-.48,10.37-.13,2.48.05,5-1.44,7.19a3.8,3.8,0,0,1-1.28,1.11,11.93,11.93,0,0,1-4.31.71c-1.87,0-3.57.77-5.35,1.15-4.63,1-6.14,0-6.29-4.87-.29-9.65.14-19.31-.54-28.95a9.43,9.43,0,0,1,0-2.6c1-5.13.48-10.31.39-15.48A2.3,2.3,0,0,1,35.91,25.9Z"/><path class="cls-52" d="M65.86,56.76c2.18,8.36,1.35,16.7-.36,25-.16.81-1.72,1.33-2.63,2-2.66-3.76-1.62-8-1.14-12A111.89,111.89,0,0,0,62.34,58C62.92,55.85,64.29,56,65.86,56.76Z"/><path class="cls-44" d="M62.86,57.76c2,3.22,1.39,6.92.78,10.12-1,5.32-.51,10.58-.77,15.86a2,2,0,0,1-2,1l-2-2C58.8,74.37,58.35,66,61.2,57.85A1.48,1.48,0,0,1,62.86,57.76Z"/><path class="cls-53" d="M62.86,57.76h-1c-1.28,1.11-3.29,1-4.25,2.64-.75,3.42-.21,6.88-.38,10.3-.09,1.79.1,3.64-1.25,5.13a1.27,1.27,0,0,1-1.58-.44c-1.11-5.15-.3-10.36-.46-15.53a3.51,3.51,0,0,1,1.93-3.17,16.76,16.76,0,0,1,6.69-1.07c1.14.25,2.49-.09,3.3,1.14C64.76,56.79,63.58,56.6,62.86,57.76Z"/><path class="cls-49" d="M56.86,58.76c1.4-1.65,3.31-.77,5-1-1.57,2.62-1,5.52-1,8.31a72.55,72.55,0,0,1-2,16.67c-6.4,2.72-13.17,3.94-20,5-1.41-2.3-4-4.39-1.26-7.4a4.31,4.31,0,0,1,2.16-.57,44.39,44.39,0,0,0,7-1.29c1.69-.53,3.58-.42,5.09-1.57l-.11-.35c.67-.49,1.07-1.37,2-1.41a2.21,2.21,0,0,1,1.14.52q.42,0,.84.06a3.55,3.55,0,0,0,.83-1.09c.47-5.06,0-10.13.25-15.2Z"/><path class="cls-54" d="M34.88,90.73c-7.75.39-4.12-5.55-5-9-1.19-1.77-1.53-3.49.25-5.12,2.55.52,2.26,3.24,3.63,4.68.84,2.06,2.65,4,1.12,6.44Z"/><path class="cls-55" d="M34.89,87.74l-2-6a.88.88,0,0,1-.33-.76c0-.28.07-.43.14-.43a5.32,5.32,0,0,1,2.35-1.24,3,3,0,0,1,2.83,1.49c-1.8,2.62,2.2,4.41,1,6.94C37.55,87.78,36.22,88.71,34.89,87.74Z"/><path class="cls-56" d="M15.9,18.79C11.43,34.26,11.34,50,12.7,65.88c.62,7.22-.49,14.64,2.59,21.55.8,1.8,1.73,3.54,2.61,5.3h-3c-3.52-6.19-3.3-13.33-5-20-1.53-1.39-1.47-3.25-1.48-5.07q0-13.41,0-26.83c0-1.82,0-3.68,1.48-5.07q1.5-8.49,3-17Z"/><path class="cls-57" d="M9.91,35.78v37c-2.4,2.23.4,5.76-2,8-1.72-12.18-.78-24.45-1-36.67-.09-5.45-.23-10.91,1-16.28C10.31,30,7.51,33.55,9.91,35.78Z"/><path class="cls-42" d="M62.91,36.82l2-1c1.95-.92,4-.52,6-.3-.24-2.49,1.9.21,1.92,1.16.09,5.75,1.33,11.58-.77,17.24l-.31-.3a5.5,5.5,0,0,1-1.84-2.68A39,39,0,0,1,70,38.78c-.29-.39,1.25-.82.2-.87-1.93-.08-3.89.28-5.83-.14A4.51,4.51,0,0,1,63,37Z"/><path class="cls-44" d="M70.86,35.51l-6,.3c.33-.35.66-.7,1-1.06h5C70.85,35,70.86,35.26,70.86,35.51Z"/><path class="cls-42" d="M70.87,51.77a1.57,1.57,0,0,1,.83,1.84c-2.64.07-5.33.64-7.81-.83C61.75,47.62,63.25,42.27,63,37a2.06,2.06,0,0,1,.89,0,12.77,12.77,0,0,1,.92,1c1.59,2.86,1.19,6,1.23,9,0,1.56-.55,3.43,1.91,3.74A10.57,10.57,0,0,1,70.87,51.77Z"/><path class="cls-26" d="M23.9,66.75c1.62,8.59,3.68,17.13,2,26-3.45.09-4.71-1.4-5.18-5-.91-7-2.62-13.84-1.8-20.95A3.41,3.41,0,0,1,23.9,66.75Z"/><path class="cls-58" d="M25.89,22.79a20.79,20.79,0,0,0,1,8c2.81,4.07.68,8.25.3,12.4-1.27,1.35-2.66,1.84-4.29.59h-1c2-6.12,1.21-12.68,3-18.83A14.89,14.89,0,0,1,25.89,22.79Z"/><path class="cls-59" d="M22.85,43.74a6.71,6.71,0,0,0,4-1c1.64-1.72,4.22.21,5.87-1.5a2.62,2.62,0,0,1,2.27.34c.87,2-.4,2.88-1.79,3.75a21,21,0,0,1-5,1.49,10,10,0,0,1-4.37-.33c-.45-.23-.91.42-.92-1.07Z"/><path class="cls-60" d="M15.82,64.74a37,37,0,0,1,0-17.94l.65.61a36.56,36.56,0,0,1,0,16.71Z"/><path class="cls-61" d="M23.9,66.75h-5a2,2,0,0,1-2-1c1.84-2,4.55-1,6.72-1.87a7.58,7.58,0,0,1,4.64.11,1.61,1.61,0,0,1,.9,1.17c-.28,1.27-1.23,1.5-2.32,1.51Z"/><path class="cls-35" d="M24,65.12c-2.25,1.23-4.7.43-7,.69l-1.13-1.07H16a5.42,5.42,0,0,1,1.23-.83,10.54,10.54,0,0,1,5.89.1A1.53,1.53,0,0,1,24,65.12Z"/><path class="cls-42" d="M16.12,46.75c2.07-1,3-.78,7.52-.84.05.46-.17.05-.17.05a.83.83,0,0,1-.14,1,3.88,3.88,0,0,1-1.18.56,8.13,8.13,0,0,1-1.3.18,9.68,9.68,0,0,1-3.26-.28c-.4-.19-.78-.1-1.07-.44Z"/><path class="cls-62" d="M26.89,66.73a2.1,2.1,0,0,1,2-1,1.37,1.37,0,0,1,1.58,0c2.43,2.67,2,6.07,2.26,9.25a1.53,1.53,0,0,1-1.83,1.74c-1.67,1.4-.76,3.31-1,5a2,2,0,0,1-2-2.26C28,75.19,25.44,71.12,26.89,66.73Z"/><path class="cls-63" d="M40.91,20.81A2.67,2.67,0,0,1,41.84,17c3.92-1.76,7.88-3.7,12.43-3.23,1.19.12,2.35.21,2.51,1.73s.21,3-1.9,3.28c-1.14.73-2.54.46-3.74.95-2.52.55-5,1.29-7.49,1.86A3,3,0,0,1,40.91,20.81Z"/><path class="cls-42" d="M58,37.81c-2.82,1.64-5,1.94-5.07-2.36,0-3.61-.13-7.23,0-10.84.12-2.6-.56-3.83-3.25-2.6a13,13,0,0,1-5.79.78.91.91,0,0,1,.24-1.38c2.84-1,5.64-2.15,8.71-2.21,2.26.76,1.4,2.68,1.52,4.19.36,4.72-.64,9.5.54,14.19Z"/><path class="cls-31" d="M54.88,37.58c-1.82-4.58-.33-9.34-.77-14-.16-1.68.64-3.83-2.25-3.91-.34-.2-.46-.39-.34-.57s.23-.29.34-.29c1-1.61,2-.31,3,0Z"/><path class="cls-64" d="M44,22.08a2.41,2.41,0,0,1-.13.71c-1.51-.54-2.44,1.58-4,.85l-1-1.85a2.15,2.15,0,0,0,2-1l3,0A.83.83,0,0,1,44,22.08Z"/><path class="cls-65" d="M57.87,26.79V34.2l-1,0V26.79Q57.38,26.1,57.87,26.79Z"/><path class="cls-65" d="M57.87,26.79h-1V21l1,0Z"/><path class="cls-62" d="M32.9,41.77c-1.76,1.79-4,.69-6,1-.92-4,.51-8,0-12,2.24-1.8-.45-5.71,3-7,1.14,5.95.95,12,1,18a1.54,1.54,0,0,1,1.6-.42Z"/><path class="cls-66" d="M35,41.77H32.87a55.21,55.21,0,0,1,0-16C33.7,24.65,34.37,25,35,26A29.7,29.7,0,0,1,35,41.77Z"/><path class="cls-42" d="M35,41.77Q35,33.88,35,26a.92.92,0,0,1,.92-.08l.19,1a92.39,92.39,0,0,1,0,15.78l-.24,2.08c-1.14.91-1.88,1.44-2.93.35C34.86,44.24,35,41.77,35,41.77Z"/><path class="cls-67" d="M32.88,25.79q0,8,0,16h-2c1.74-3.12.68-6.53,1-9.8C32.13,29.9,31.09,27.61,32.88,25.79Z"/><path class="cls-68" d="M34.24,44.65l3.29.15c1.54,1.28,1,3.05,1,4.64,0,7.78,0,15.56,0,23.34,0,6.72,0,6.78,6.17,4.8a13,13,0,0,1,4.84-.78,1.25,1.25,0,0,1,.11,1.37c-2.44,1.88-5.58,1.56-8.3,2.57l-1.82.11c-.91-.52-1.58,1.57-3.08.89-2.56-1.49-1.33-6.76-1.2-9.11.23-4.06,0-7.71-4.35-9.6-.48-2.76.29-5.47.3-8.23A19.17,19.17,0,0,0,29.59,46C31.27,46,30.77,45.81,34.24,44.65Z"/><path class="cls-68" d="M37.9,67.27c3.94,7.93,1.46,8.58,13.1,6.53-3.73,1.14-7.45,2.31-11.2,3.4-1.78.51-1.87-.82-1.89-2C37.87,72.72,37.9,70.26,37.9,67.27Z"/><path class="cls-42" d="M38.58,36c-1.67-10.26-.27-11.57,13.11-12C44.93,25.44,38.18,26.88,38.58,36Z"/><path class="cls-68" d="M53.77,75.71l-2,.85c1.89-4.81.71-9.84,1.09-14.75.13-1.69-.87-3.75,1.32-4.9C54.19,63.18,55,69.47,53.77,75.71Z"/><path class="cls-34" d="M53.77,75.71l.45-18.8,1.65-.22c-1.92,6.25-.49,12.66-.87,19Z"/><path class="cls-42" d="M36.1,42.67V26.89A33.54,33.54,0,0,1,36.1,42.67Z"/><path class="cls-69" d="M47.77,77.47a2,2,0,0,1,.13-.72l4,.16c-.35,2.39-2.76,1.76-4,2.76A1.79,1.79,0,0,1,47.77,77.47Z"/><path class="cls-70" d="M56.87,75.75l-1,0c.62-5.64-1.14-11.42,1-17h0A61.9,61.9,0,0,1,56.87,75.75Z"/><path class="cls-71" d="M56.87,75.75q0-8.49,0-17c1.38.13,1.36.88,1.14,2C57.12,65.75,59.08,70.91,56.87,75.75Z"/><path class="cls-69" d="M47.77,77.47c0,.74.07,1.47.11,2.2-2.75.18-5.34,1.59-8.17,1C41.93,78.44,45.41,79.36,47.77,77.47Z"/><path class="cls-72" d="M30.71,76.75c1.78-3.86-.29-7.36-1-11,1.69-1.39,3.67-1.93,3.76.91.16,4.67,1.25,9.48-.76,14.06v1A5.75,5.75,0,0,1,30.71,76.75Z"/><path class="cls-66" d="M32.89,80.73c0-4.3-.16-8.6.06-12.89.13-2.78-1.34-2.42-3.05-2.08l-1,0c0-.32,0-.64,0-1a1.59,1.59,0,0,1-.25-2c.44-.36.84-.39,1.2,0,1.51,2.64,4.1-1.62,4.87.5.86,2.37.53,5.2.55,7.83,0,2.8-.15,5.61-.24,8.41A2.22,2.22,0,0,1,32.89,80.73Z"/><path class="cls-42" d="M70.87,51.77c-.67,1.1-1.34.09-2,0a29.21,29.21,0,0,1,.49-13.69,1,1,0,0,1,1.5-.29Q70.87,44.78,70.87,51.77Z"/><path class="cls-42" d="M70.85,37.79h-1c-2,1.31-4,2.43-6,0a7.18,7.18,0,0,1,0-.8c2.29,0,4.59,0,6.89,0,.08,0,.23.23.23.36S70.91,37.64,70.85,37.79Z"/><path class="cls-42" d="M63.88,37.8c2,1,4-.49,6,0-.44,4.65,1,9.44-1,14-2.75.68-4.77,1-4.11-3.24A21.72,21.72,0,0,0,63.88,37.8Z"/><path class="cls-42" d="M30.66,62.9l-.46-.08-.45.13a2.26,2.26,0,0,1-1.52.29,1.63,1.63,0,0,1-1.07-1c-.21-4.4,1.08-8.85-.4-13.2-.86-1.13-2.62-1-3.32-2.38.1-.25-.25-.48-.11-.71l6.26.06c2.05,1,2.41,2.18,2.2,4.79C31.47,54.81,32.14,59,30.66,62.9Z"/><path class="cls-42" d="M16.12,46.75l.86.06a4.83,4.83,0,0,1,1.14,2.36c.24,4.37.22,8.74,0,13.11A4.53,4.53,0,0,1,17,64.66L16,64.74Z"/><path class="cls-73" d="M28,62.8a1.35,1.35,0,0,1,.92.15l0,1.82L24,65.11l-.16-.46C24.17,61.67,26.81,63.87,28,62.8Z"/><path class="cls-42" d="M28,62.8c-.84,1.85-1.46.15-2.58,1.34-2.27,0-6.11.52-8.38.52l0-1.88A2.51,2.51,0,0,1,18,62a6.69,6.69,0,0,1,1.18-.25c.39-.05.79-.08,1.19-.1A33,33,0,0,0,23.9,61a3.4,3.4,0,0,1,1.83.32c.53.38.73,1,1.17,1.48Z"/><path class="cls-42" d="M26.9,62.76l-1-1c-2.76-3.34-.14-7.72-2.16-11.19a7.37,7.37,0,0,0-1.94-.64,4.16,4.16,0,0,1-1.88-.9c-.67-1.19.28-1.69,1-2.28l1,0c1.47,1.34,3.53-.15,5,1.05C28.9,52.76,28,57.76,26.9,62.76Z"/><path class="cls-42" d="M20.91,46.75l-1,2c.28,4.7,1.43,9.47-1,14h-1c-1.26-4.59.22-9.34-.81-14l-.1-2Z"/><path class="cls-42" d="M26.89,47.77c-1.69-.25-3.64.69-5-1.05a.58.58,0,0,1,.74-.1C24,47,25.77,46.26,26.89,47.77Z"/><path class="cls-74" d="M44,22.08l-.12-1.3a15,15,0,0,1,8-2v.86C49.19,20.33,46.9,22.19,44,22.08Z"/><path class="cls-42" d="M17.08,48.8c1.7,4.57.44,9.31.81,14l-.82,0Q17.07,55.79,17.08,48.8Z"/><path class="cls-42" d="M23.89,48.77c2.4.32,2,2.18,2,3.74,0,3.08,0,6.17,0,9.25h-2A9.63,9.63,0,0,1,23.89,48.77Z"/><path class="cls-42" d="M23.89,48.77a18.73,18.73,0,0,0,0,13,6.57,6.57,0,0,1-4,1c0-3.11,0-6.22,0-9.33,0-1.85,0-3.67,2-4.64Z"/><path class="cls-42" d="M21.89,48.77C20.14,52,21,55.51,21,58.88c0,1.54.2,2.83-1.11,3.86h-1c.46-4.66-1.12-9.45,1-14Z"/></g><g id="Ebene_2-2" data-name="Ebene 2"><path class="cls-42" d="M35.22,21.91h16.9A1.92,1.92,0,0,1,54,23.83V24a0,0,0,0,1,0,0H34.51a0,0,0,0,1,0,0V22.62A.71.71,0,0,1,35.22,21.91Z" transform="matrix(0.94, -0.35, 0.35, 0.94, -5.25, 17.04)"/><path class="cls-42" d="M18.1,61.13H35.53a0,0,0,0,1,0,0v3a0,0,0,0,1,0,0H16a0,0,0,0,1,0,0v-.86A2.09,2.09,0,0,1,18.1,61.13Z" transform="matrix(1, -0.07, 0.07, 1, -4.15, 1.87)"/><path class="cls-42" d="M37.11,76H54a0,0,0,0,1,0,0v1.6a3,3,0,0,1-3,3H36.24A1.23,1.23,0,0,1,35,79.3V78.07A2.09,2.09,0,0,1,37.11,76Z" transform="translate(-12.68 8.73) rotate(-9.81)"/><path class="cls-42" d="M54.17,51.34H72.25a0,0,0,0,1,0,0v1.6a3,3,0,0,1-3,3h-16a1.23,1.23,0,0,1-1.23-1.23V53.43A2.09,2.09,0,0,1,54.17,51.34Z" transform="translate(-8.23 11.38) rotate(-9.81)"/><path class="cls-42" d="M54.75,35.93H72.83a0,0,0,0,1,0,0v2.23a3,3,0,0,1-3,3h-16a1.23,1.23,0,0,1-1.23-1.23V38A2.09,2.09,0,0,1,54.75,35.93Z" transform="translate(131.14 65.78) rotate(170.19)"/><path class="cls-42" d="M18.75,44.81H36.18a0,0,0,0,1,0,0v3a0,0,0,0,1,0,0H16.65a0,0,0,0,1,0,0V46.9A2.09,2.09,0,0,1,18.75,44.81Z" transform="translate(-6.24 4.17) rotate(-8.07)"/></g></g></svg>